<?xml version="1.0" encoding="utf-8"?>
<!-- Generator: Adobe Illustrator 28.0.0, SVG Export Plug-In . SVG Version: 6.00 Build 0)  -->
<svg version="1.1" id="Capa_1" xmlns="http://www.w3.org/2000/svg" xmlns:xlink="http://www.w3.org/1999/xlink" x="0px" y="0px"
	 viewBox="0 0 300 300" style="enable-background:new 0 0 300 300;" xml:space="preserve">
<style type="text/css">
	.st0{fill:#FF0000;}
</style>
<g>
	<path class="st0" d="M261.76,253.08l-24.69,14.21c-0.74,0.43-1.69,0.17-2.11-0.56l-7.14-12.34l-8.79-15.17
		c-0.39-0.68-1.24-0.95-1.96-0.64c-10.45,4.52-22.06,7.04-34.29,7.04c-6.85,0-13.51-0.79-19.87-2.28c-1.01-0.24-1.52-1.38-1-2.28
		l12.5-21.58c0.31-0.54,0.91-0.83,1.53-0.75c2.24,0.27,4.52,0.4,6.84,0.39c7.2,0,14.08-1.31,20.4-3.69c0.89-0.34,1.27-1.39,0.8-2.22
		l-19.99-34.53c-0.6-1.03-2.08-1.03-2.68,0l-30.37,52.44l-20.53,35.44c-0.35,0.61-1.08,0.9-1.76,0.72
		c-0.29-0.08-0.58-0.16-0.87-0.25c-52.17-14.45-90.31-60.42-90.31-114.9c0-66.07,56.1-119.64,125.29-119.64
		c30.56,0,58.57,10.45,80.32,27.81l2.92,2.44c0.71,0.59,0.74,1.67,0.06,2.31l-27.63,25.83c-0.56,0.53-1.43,0.55-2.03,0.07
		c-14.52-11.62-33.22-18.62-53.64-18.62c-46.15,0-83.55,35.73-83.55,79.79c0,28.75,15.93,53.95,39.82,67.99
		c0.74,0.43,1.69,0.17,2.12-0.57l43.26-74.69l16.9-29.19c0.14-0.23,0.33-0.43,0.56-0.56l0,0c0.48-0.28,1.07-0.28,1.55,0l0,0
		c0.23,0.14,0.43,0.33,0.56,0.56l16.9,29.19l30.54,52.73l21.67,37.43l9.23,15.94C262.75,251.71,262.5,252.66,261.76,253.08z"/>
</g>
</svg>
