<?xml version="1.0" encoding="utf-8"?>
<!-- Generator: Adobe Illustrator 28.0.0, SVG Export Plug-In . SVG Version: 6.00 Build 0)  -->
<svg version="1.1" id="Capa_1" xmlns="http://www.w3.org/2000/svg" xmlns:xlink="http://www.w3.org/1999/xlink" x="0px" y="0px"
	 viewBox="0 0 529.73 297.83" style="enable-background:new 0 0 529.73 297.83;" xml:space="preserve">
<style type="text/css">
	.st0{fill:#FF0000;}
	.st1{font-family:'ArialRoundedMTBold';}
	.st2{font-size:114.0077px;}
	.st3{font-size:76.0051px;}
</style>
<g>
	<path class="st0" d="M249.02,252l-24.67,14.21c-0.74,0.43-1.68,0.17-2.11-0.56l-7.14-12.34l-8.78-15.17
		c-0.39-0.68-1.24-0.95-1.96-0.64c-10.45,4.52-22.05,7.04-34.27,7.04c-6.84,0-13.5-0.79-19.86-2.28c-1.01-0.24-1.52-1.38-1-2.28
		l12.49-21.58c0.31-0.54,0.91-0.83,1.53-0.75c2.24,0.26,4.52,0.4,6.84,0.39c7.2,0,14.08-1.31,20.38-3.69
		c0.89-0.34,1.27-1.39,0.8-2.22l-19.98-34.53c-0.59-1.03-2.08-1.03-2.68,0l-30.35,52.44l-20.51,35.44c-0.35,0.61-1.07,0.9-1.76,0.72
		c-0.29-0.08-0.58-0.16-0.87-0.25c-52.14-14.45-90.26-60.42-90.26-114.9c0-66.07,56.06-119.64,125.22-119.64
		c30.54,0,58.53,10.45,80.27,27.81l2.91,2.44c0.71,0.59,0.74,1.67,0.06,2.31l-27.61,25.83c-0.56,0.53-1.43,0.55-2.03,0.07
		c-14.51-11.62-33.2-18.62-53.61-18.62c-46.12,0-83.5,35.73-83.5,79.79c0,28.75,15.92,53.95,39.8,67.99
		c0.74,0.43,1.69,0.17,2.11-0.57l43.23-74.69l16.89-29.19c0.14-0.23,0.33-0.43,0.56-0.56l0,0c0.48-0.28,1.07-0.28,1.55,0h0
		c0.23,0.14,0.43,0.33,0.56,0.56l16.89,29.19l30.52,52.73l21.66,37.43l9.23,15.94C250.02,250.63,249.76,251.57,249.02,252z"/>
	<text transform="matrix(1.0023 0 0 1 226.6153 168.1678)"><tspan x="0" y="0" class="st0 st1 st2">C</tspan><tspan x="84.39" y="0" class="st0 st1 st3">ostur</tspan></text>
	<g>
		<path class="st0" d="M340.4,255.78l-3.91-10.24h-33.26L299.34,256c-1.53,4.08-2.83,6.84-3.91,8.27c-1.08,1.43-2.85,2.14-5.3,2.14
			c-2.08,0-3.93-0.76-5.52-2.28c-1.6-1.52-2.4-3.25-2.4-5.18c0-1.11,0.19-2.26,0.56-3.45c0.37-1.19,0.99-2.84,1.84-4.95l20.92-53
			c0.59-1.52,1.31-3.35,2.15-5.48c0.84-2.13,1.73-3.9,2.68-5.32c0.95-1.41,2.19-2.55,3.74-3.42c1.54-0.87,3.45-1.31,5.72-1.31
			c2.31,0,4.23,0.44,5.78,1.31c1.54,0.87,2.79,2,3.74,3.37c0.95,1.37,1.75,2.85,2.4,4.43c0.65,1.58,1.48,3.68,2.48,6.32l21.37,52.66
			c1.67,4.01,2.51,6.92,2.51,8.74c0,1.89-0.79,3.63-2.37,5.21c-1.58,1.58-3.49,2.37-5.72,2.37c-1.3,0-2.42-0.23-3.35-0.7
			c-0.93-0.46-1.71-1.09-2.34-1.89c-0.63-0.8-1.31-2.02-2.04-3.67C341.55,258.5,340.92,257.04,340.4,255.78z M307.59,233.12h24.44
			l-12.33-33.68L307.59,233.12z"/>
		<path class="st0" d="M382.12,241.75h-3.87v17.48c0,2.3-0.51,4-1.53,5.08c-1.02,1.09-2.34,1.63-3.98,1.63
			c-1.76,0-3.12-0.57-4.09-1.71c-0.97-1.14-1.45-2.81-1.45-5.01v-41.86c0-2.38,0.53-4.09,1.6-5.16c1.07-1.06,2.79-1.6,5.17-1.6
			h17.97c2.48,0,4.6,0.11,6.36,0.32c1.76,0.21,3.35,0.64,4.76,1.28c1.71,0.72,3.22,1.74,4.54,3.08c1.31,1.34,2.31,2.89,2.99,4.66
			c0.68,1.77,1.02,3.64,1.02,5.62c0,4.06-1.15,7.3-3.44,9.72c-2.29,2.42-5.77,4.14-10.43,5.16c1.96,1.04,3.83,2.57,5.62,4.6
			c1.79,2.03,3.38,4.19,4.78,6.48c1.4,2.29,2.49,4.35,3.27,6.2c0.78,1.84,1.17,3.11,1.17,3.8c0,0.72-0.23,1.43-0.69,2.13
			c-0.46,0.71-1.09,1.26-1.88,1.67c-0.79,0.41-1.71,0.61-2.75,0.61c-1.24,0-2.28-0.29-3.12-0.87c-0.84-0.58-1.57-1.32-2.18-2.21
			c-0.61-0.89-1.43-2.2-2.47-3.93l-4.43-7.35c-1.59-2.7-3.01-4.75-4.26-6.16c-1.25-1.41-2.52-2.38-3.81-2.89
			C385.71,242.01,384.08,241.75,382.12,241.75z M388.45,218.89h-10.19v14.96h9.89c2.65,0,4.89-0.23,6.7-0.69
			c1.81-0.46,3.19-1.24,4.15-2.34c0.95-1.1,1.43-2.62,1.43-4.55c0-1.51-0.38-2.84-1.15-3.99c-0.77-1.15-1.84-2.01-3.2-2.58
			C394.78,219.16,392.24,218.89,388.45,218.89z"/>
		<path class="st0" d="M453.69,219.71h-12.05v39.52c0,2.28-0.51,3.97-1.53,5.07c-1.02,1.1-2.33,1.65-3.94,1.65
			c-1.64,0-2.97-0.56-4-1.67c-1.03-1.11-1.54-2.8-1.54-5.05v-39.52h-12.05c-1.89,0-3.29-0.41-4.2-1.24
			c-0.92-0.83-1.38-1.92-1.38-3.28c0-1.41,0.48-2.52,1.43-3.34c0.95-0.82,2.34-1.22,4.15-1.22h35.12c1.91,0,3.33,0.42,4.26,1.26
			c0.93,0.84,1.39,1.94,1.39,3.3c0,1.36-0.47,2.46-1.41,3.28C456.99,219.29,455.58,219.71,453.69,219.71z"/>
	</g>
</g>
</svg>
